<?xml version="1.0" standalone="no"?><!DOCTYPE svg PUBLIC "-//W3C//DTD SVG 1.1//EN" "http://www.w3.org/Graphics/SVG/1.1/DTD/svg11.dtd"><svg t="1550127426492" class="icon" style="" viewBox="0 0 1025 1024" version="1.1" xmlns="http://www.w3.org/2000/svg" p-id="4528" xmlns:xlink="http://www.w3.org/1999/xlink" width="48.046875" height="48"><defs><style type="text/css"></style></defs><path d="M727.198955 720.998714 727.198955 96.638061c0-28.363134-23.076667-51.419151-51.439801-51.419151L51.419151 45.21891c-28.363134 0-51.419151 23.056017-51.419151 51.419151l0 624.345166c0 28.363134 23.056017 51.439801 51.419151 51.439801l624.345166 0C704.122288 772.438516 727.198955 749.361848 727.198955 720.998714zM14.687498 720.998714 14.687498 96.638061c0-20.247581 16.499559-36.731652 36.74714-36.731652L675.779804 59.906408c20.268232 0 36.711002 16.478909 36.711002 36.731652l0 624.345166c0 20.247581-16.463421 36.711002-36.711002 36.711002L51.419151 757.694229C31.17157 757.709717 14.687498 741.230808 14.687498 720.998714z" p-id="4529"></path><path d="M630.142727 97.304032 97.071716 97.304032c-24.795801 0-45.007245 20.159818-45.007245 44.971107L52.064472 675.366799c0 24.795801 20.195956 45.007245 45.007245 45.007245l533.05036 0c24.811289 0 45.007245-20.211443 45.007245-45.007245L675.129321 142.275139C675.134484 117.463849 654.938528 97.304032 630.142727 97.304032zM660.405685 675.366799c0 16.685411-13.577547 30.262958-30.283608 30.262958L97.071716 705.629757c-16.721549 0-30.299096-13.562059-30.299096-30.262958L66.77262 142.275139c0-16.685411 13.577547-30.262958 30.299096-30.262958l533.05036 0c16.685411 0 30.283608 13.577547 30.283608 30.262958C660.405685 142.275139 660.405685 675.366799 660.405685 675.366799z" p-id="4530"></path><path d="M972.580849 251.576972l-206.822693 0 0 14.672011 206.802043 0c20.32502 0 36.76779 16.499559 36.76779 36.74714l0 624.345166c0 20.268232-16.463421 36.711002-36.76779 36.711002L348.220196 964.052291c-20.247581 0-36.711002-16.463421-36.711002-36.711002l0-107.143881-14.672011 0 0 107.143881c0 28.363134 23.040529 51.439801 51.383013 51.439801l624.345166 0c28.363134 0 51.439801-23.076667 51.439801-51.439801L1024.005163 302.996123C1024.015488 274.617501 1000.938821 251.576972 972.580849 251.576972z" p-id="4531"></path><path d="M957.206729 348.653851l0 533.05036c0 16.685411-13.505271 30.283608-30.262958 30.283608L393.893411 911.98782c-16.685411 0-30.299096-13.577547-30.299096-30.283608l0-61.506804-14.672011 0 0 61.506804c0 24.811289 20.175305 45.007245 44.971107 45.007245l533.05036 0c24.795801 0 45.007245-20.195956 45.007245-45.007245L971.951016 348.653851c0-24.831939-20.211443-45.007245-45.007245-45.007245l-161.185615 0 0 14.708149 161.185615 0C943.680808 318.349592 957.206729 331.932302 957.206729 348.653851z" p-id="4532"></path></svg>